<?xml version="1.0" encoding="UTF-8"?>
<svg width="687px" height="341px" viewBox="0 0 687 341" version="1.1" xmlns="http://www.w3.org/2000/svg" xmlns:xlink="http://www.w3.org/1999/xlink">
    <!-- Generator: Sketch 51.1 (57501) - http://www.bohemiancoding.com/sketch -->
    <title>Group</title>
    <desc>Created with Sketch.</desc>
    <defs>
        <polygon id="path-1" points="0 0.0005 96 0.0005 96 138 0 138"></polygon>
        <polygon id="path-3" points="0.5 0.0005 96.5 0.0005 96.5 138 0.5 138"></polygon>
        <polygon id="path-5" points="0.75 0.0005 96.75 0.0005 96.75 138 0.75 138"></polygon>
    </defs>
    <g id="Page-1" stroke="none" stroke-width="1" fill="none" fill-rule="evenodd">
        <g id="logo" transform="translate(-179.000000, -330.000000)">
            <g id="Group" transform="translate(179.000000, 330.000000)">
                <g id="Group-7">
                    <path d="M293.299,101.9488 L189.6,161.8198 C182.933,165.6688 182.933,175.2918 189.6,179.1398 L293.299,239.0108 C295.966,240.5518 299.299,238.6268 299.299,235.5478 L299.299,105.4128 C299.299,102.3338 295.966,100.4088 293.299,101.9488" id="Fill-1" fill="#FFC100"></path>
                    <path d="M72.6061,198.7954 L72.6061,128.3084 C72.6061,126.8794 73.3691,125.5584 74.6061,124.8444 L147.6491,82.6724 C148.8871,81.9584 150.4121,81.9584 151.6491,82.6724 L212.6921,117.9164 C213.9311,118.6304 215.4551,118.6304 216.6921,117.9164 L281.2991,80.6154 C283.9661,79.0764 283.9661,75.2274 281.2991,73.6874 L157.1491,2.0094 C152.5081,-0.6696 146.7911,-0.6696 142.1491,2.0094 L2.0001,82.9244 C0.7621,83.6394 0.0001,84.9604 0.0001,86.3894 L0.0001,236.0954 C0.0001,239.1754 3.3331,241.0994 6.0001,239.5604 L70.6061,202.2594 C71.8441,201.5444 72.6061,200.2244 72.6061,198.7954" id="Fill-3" fill="#FFC100"></path>
                    <path d="M212.6925,223.0435 L151.6495,258.2875 C150.4115,259.0015 148.8875,259.0015 147.6495,258.2875 L86.6065,223.0445 C85.3685,222.3295 83.8435,222.3295 82.6065,223.0445 L18.0005,260.3445 C15.3335,261.8845 15.3335,265.7325 18.0005,267.2725 L142.1495,338.9505 C146.7905,341.6295 152.5085,341.6295 157.1495,338.9505 L281.2985,267.2725 C283.9655,265.7325 283.9655,261.8845 281.2985,260.3445 L216.6925,223.0435 C215.4555,222.3295 213.9305,222.3295 212.6925,223.0435" id="Fill-5" fill="#C89F42"></path>
                </g>
                <g id="Group-10" transform="translate(343.000000, 101.000000)">
                    <g id="Group-3">
                        <mask id="mask-2" fill="white">
                            <use xlink:href="#path-1"></use>
                        </mask>
                        <g id="Clip-2"></g>
                        <path d="M82,28.5625 L82,2.0005 C82,0.8955 81.104,0.0005 80,0.0005 L30,0.0005 C13.432,0.0005 0,13.4315 0,29.9995 L0,108.0005 C0,124.5685 13.432,138.0005 30,138.0005 L76,138.0005 C87.046,138.0005 96,129.0455 96,118.0005 L96,80.5625 C96,79.4575 95.104,78.5625 94,78.5625 L70,78.5625 C67.791,78.5625 66,80.3535 66,82.5625 L66,106.0005 C66,107.1045 65.104,108.0005 64,108.0005 L40,108.0005 C34.478,108.0005 30,103.5225 30,98.0005 L30,40.5595 C30,35.0355 34.478,30.5585 40,30.5585 L66,30.5585 L66,30.5625 L80,30.5625 C81.104,30.5625 82,29.6665 82,28.5625" id="Fill-1" fill="#FFC100" mask="url(#mask-2)"></path>
                    </g>
                    <g id="Group-6" transform="translate(247.000000, 0.000000)">
                        <mask id="mask-4" fill="white">
                            <use xlink:href="#path-3"></use>
                        </mask>
                        <g id="Clip-5"></g>
                        <path d="M96.5,28.5625 L96.5,2.0005 C96.5,0.8955 95.604,0.0005 94.5,0.0005 L30.5,0.0005 C13.932,0.0005 0.5,13.4315 0.5,29.9995 L0.5,108.0005 C0.5,124.5685 13.932,138.0005 30.5,138.0005 L94.5,138.0005 C95.604,138.0005 96.5,137.1045 96.5,136.0005 L96.5,110.0005 C96.5,108.8955 95.604,108.0005 94.5,108.0005 L66.5,108.0005 L40.5,108.0005 C34.978,108.0005 30.5,103.5225 30.5,98.0005 L30.5,40.5595 C30.5,35.0355 34.978,30.5585 40.5,30.5585 L66.5,30.5585 L66.5,30.5625 L94.5,30.5625 C95.604,30.5625 96.5,29.6665 96.5,28.5625" id="Fill-4" fill="#FFC100" mask="url(#mask-4)"></path>
                    </g>
                    <g id="Group-9" transform="translate(123.000000, 0.000000)">
                        <mask id="mask-6" fill="white">
                            <use xlink:href="#path-5"></use>
                        </mask>
                        <g id="Clip-8"></g>
                        <path d="M66.75,98.0005 C66.75,103.5225 62.272,108.0005 56.75,108.0005 L48.75,108.0005 L40.75,108.0005 C35.228,108.0005 30.75,103.5225 30.75,98.0005 L30.75,40.5595 C30.75,35.0355 35.228,30.5585 40.75,30.5585 L48.75,30.5585 L56.75,30.5585 C62.272,30.5585 66.75,35.0355 66.75,40.5595 L66.75,98.0005 Z M66.75,0.0005 L48.75,0.0005 L30.75,0.0005 C14.182,0.0005 0.75,13.4315 0.75,30.0005 L0.75,108.0005 C0.75,124.5685 14.182,138.0005 30.75,138.0005 L48.75,138.0005 L66.75,138.0005 C83.318,138.0005 96.75,124.5685 96.75,108.0005 L96.75,30.0005 C96.75,13.4315 83.318,0.0005 66.75,0.0005 Z" id="Fill-7" fill="#FFC100" mask="url(#mask-6)"></path>
                    </g>
                </g>
            </g>
        </g>
    </g>
</svg>