<?xml version="1.0" encoding="UTF-8"?>
<svg width="14px" height="11px" viewBox="0 0 14 11" version="1.1" xmlns="http://www.w3.org/2000/svg" xmlns:xlink="http://www.w3.org/1999/xlink">
    <!-- Generator: Sketch 51.1 (57501) - http://www.bohemiancoding.com/sketch -->
    <title>twitter (1)</title>
    <desc>Created with Sketch.</desc>
    <defs></defs>
    <g id="常规版" stroke="none" stroke-width="1" fill="none" fill-rule="evenodd">
        <g id="3-1-账户" transform="translate(-330.000000, -1001.000000)" fill="#C7BFB0">
            <g id="footer" transform="translate(0.000000, 962.000000)">
                <g id="Group-10" transform="translate(330.000000, 34.000000)">
                    <g id="twitter">
                        <path d="M13.5436977,6.30621299 C13.1598646,6.86769433 12.6957797,7.34610396 12.1514804,7.74138547 C12.157214,7.82158098 12.1600714,7.94193063 12.1600714,8.10230285 C12.1600714,8.84714729 12.0512454,9.59050663 11.8335182,10.3323809 C11.6158662,11.0743491 11.2849892,11.7862017 10.8410189,12.4679575 C10.3969546,13.1497133 9.86846508,13.7527399 9.25545634,14.2768869 C8.6424288,14.8011279 7.90333678,15.2193251 7.03821788,15.5316477 C6.17319297,15.8438763 5.24786164,16 4.26246828,16 C2.70987875,16 1.28903092,15.584585 0,14.753849 C0.200545164,14.7768211 0.423930821,14.7882884 0.670288561,14.7882884 C1.95939468,14.7882884 3.10803647,14.3929129 4.11642072,13.6023498 C3.51486042,13.5908826 2.97629476,13.4060532 2.50074255,13.0479932 C2.02526553,12.6899521 1.69871228,12.2330482 1.52108281,11.6773005 C1.71017953,11.7059498 1.8848764,11.7202557 2.04532381,11.7202557 C2.29168155,11.7202557 2.53510668,11.6887677 2.7757496,11.6257543 C2.13409155,11.4940126 1.60274462,11.1745841 1.18159601,10.6675251 C0.760541404,10.1605602 0.550014099,9.57183946 0.550014099,8.9015509 L0.550014099,8.86718677 C0.939561989,9.084914 1.35783438,9.20233105 1.80468089,9.21951311 C1.42658145,8.96742175 1.1258013,8.63801109 0.902340446,8.23126234 C0.678879594,7.82443839 0.567196165,7.3833255 0.567196165,6.90777329 C0.567196165,6.40366576 0.693204249,5.93670458 0.94529561,5.50705893 C1.63849986,6.36071059 2.48216938,7.04385751 3.47615377,7.55663126 C4.47013817,8.06940502 5.53431714,8.35441301 6.66870947,8.41167403 C6.62289689,8.19402199 6.5999812,7.98202839 6.5999812,7.7757496 C6.5999812,7.00808347 6.87064574,6.35351067 7.4120688,5.8120876 C7.95349187,5.27068333 8.60806467,5 9.3757308,5 C10.1778363,5 10.8538584,5.29218912 11.4038725,5.87656735 C12.0283485,5.75629288 12.6155842,5.53283203 13.1655983,5.20627879 C12.9535859,5.8651189 12.5468559,6.37503525 11.9452956,6.73595263 C12.4780524,6.67867281 13.0108657,6.53540746 13.5436977,6.30621299 Z" id="twitter-(1)"></path>
                    </g>
                </g>
            </g>
        </g>
    </g>
</svg>