<?xml version="1.0" encoding="UTF-8"?>
<svg width="13px" height="10px" viewBox="0 0 13 10" version="1.1" xmlns="http://www.w3.org/2000/svg" xmlns:xlink="http://www.w3.org/1999/xlink">
    <!-- Generator: Sketch 51.1 (57501) - http://www.bohemiancoding.com/sketch -->
    <title>邮箱</title>
    <desc>Created with Sketch.</desc>
    <defs></defs>
    <g id="Page-1" stroke="none" stroke-width="1" fill="none" fill-rule="evenodd">
        <g id="web" transform="translate(-1035.000000, -4537.000000)" fill="#C7BFB0">
            <g id="footer" transform="translate(0.000000, 4498.000000)">
                <g id="Group-10" transform="translate(812.000000, 34.000000)">
                    <g id="修改" transform="translate(223.000000, 0.000000)">
                        <path d="M11.9124563,5.00060509 L11.9124563,5 L1.08754368,5 C0.487993129,5 0,5.55354698 0,6.23516576 L0,13.7658175 C0,14.4478712 0.487993129,15 1.08754368,15 L11.9124563,15 C12.5145568,15 13,14.4478712 13,13.7658175 L13,6.23575194 C13,5.55464371 12.5145568,5.00060509 11.9124563,5.00060509 Z M11.6521314,5.88453306 L11.6522771,5.88453306 L7.33525088,10.22691 C6.95846912,10.6081945 6.67922041,10.7976643 6.50029142,10.7976643 C6.32134421,10.7976643 6.04167659,10.6081945 5.66531373,10.22691 L1.34757719,5.88453306 L11.6521314,5.88453306 Z M0.808586384,13.4907459 L0.808586384,6.68683014 L4.18013388,10.0416569 L0.808586384,13.4907459 Z M1.37518879,14.115032 L4.75983176,10.7062196 L5.31419473,11.2583484 C5.63642719,11.5777432 6.03313448,11.7416478 6.49985429,11.7416478 C6.96906935,11.7416478 7.36328139,11.5775919 7.68686165,11.2583484 L8.24122462,10.7062196 L11.625303,14.115032 L1.37518879,14.115032 Z M12.1914136,13.4907459 L12.1909947,13.4902164 L8.82008468,10.0416569 L12.1914136,6.68683014 L12.1914136,13.4907459 Z" id="邮箱"></path>
                    </g>
                </g>
            </g>
        </g>
    </g>
</svg>